<?xml version="1.0" encoding="utf-8"?>
<!-- Generator: Adobe Illustrator 19.2.1, SVG Export Plug-In . SVG Version: 6.00 Build 0)  -->
<svg version="1.1" xmlns="http://www.w3.org/2000/svg" xmlns:xlink="http://www.w3.org/1999/xlink" x="0px" y="0px"
	 viewBox="0 0 300 300" style="enable-background:new 0 0 300 300;" xml:space="preserve">
<style type="text/css">
	.st0{fill:#F1F2F2;}
	.st1{fill:none;}
	.st2{fill:#9C9C9C;}
	.st3{font-family:'DINPro-CondBold';}
	.st4{font-size:45px;}
	.st5{fill:#A61F30;}
</style>
<g id="BG_x5F_Color">
</g>
<g id="Layer_2">
</g>
<g id="Layer_3">
</g>
<g id="Layer_4">
	<g id="XMLID_13_">
		<g id="XMLID_6_">
			<g id="XMLID_11_">
				<polygon class="st0" points="250.4,147.1 250.4,176.9 164.5,227.5 145,224.2 143.5,222.9 92.3,210.8 54.5,204 47.3,200.2 
					44.3,190.8 48.5,176.3 54.7,172.2 100.2,177.8 161.5,192.5 248.5,147.1 				"/>
			</g>
			<g id="XMLID_12_">
			</g>
		</g>
		<rect id="XMLID_22_" y="64.9" class="st1" width="299" height="38.7"/>
		<text id="XMLID_21_" transform="matrix(1 0 0 1 68.8159 96.9117)" class="st2 st3 st4">Silverbook</text>
		<g id="XMLID_7_">
			<path id="XMLID_15_" class="st2" d="M117,221.9c-11.9-2.4-32-6.7-43.9-9.2c-5.3-1.1-10.6-2.5-16-3.3c-6.9-1-10.7-5.4-13.5-11.1
				c-1.3-2.7-1.9-5.7-2.9-8.5c0-0.8,0-1.6,0-2.3c0.5-4.2,1.3-8.2,4.2-11.5c2.2-2.6,4.8-4.6,7.8-6c27.4-13.7,54.8-27.6,82.3-41.1
				c2.5-1.2,5-2.7,7.6-3.7c1.7-0.7,3.5-1.1,5.4-1.1c0.9,0.1,1.8-0.2,2.7,0.2c32.3,6,64.6,12,96.9,18c1.5,0.3,3.1,0.5,4.6,0.8
				c0.8,0.2,1.9,0.4,2,1.4c0.1,0.9-0.9,1.2-1.6,1.5c-6.7,3.7-13.4,7.4-20.2,11.2c-21.5,11.9-43,23.8-64.5,35.8
				c-3.7,2.1-7.5,2.3-11.6,1.4c-28.8-6.1-57.6-12.1-86.5-17.7c-3.1-0.6-6.4-1-9.5-1.7c-3.2-0.8-5.8,0.2-8.1,2.2
				c-7,5.8-6.8,18.5,0.3,24.1c2.1,1.7,4.9,1.8,7.4,2.4c16.2,3.6,40.7,8.9,56.9,12.5"/>
			<path id="XMLID_14_" class="st2" d="M133.8,219.8c5.1,1.3,18.9,3.9,24,5.1c3.4,0.8,6.4,0.1,9.5-1.6c28.3-15.8,56.7-31.6,85-47.4
				c2.5-1.4,4.4-1.6,6.1,1c0,0.6,0,1.2,0,1.8c-1,1.2-2.4,1.9-3.7,2.7c-28.3,15.7-56.6,31.4-84.8,47.2c-4.3,2.4-8.7,3.1-13.5,2.1
				c-4.9-1.1-17.6-4.6-22.5-5.6"/>
		</g>
		<path id="XMLID_16_" class="st5" d="M134,204.8c-0.2,11.5-0.2,26.1-0.3,37.6c-0.2,0-7.4-6-9.2-7.7c-0.9-0.8-1.7,0-2.3,0.3
			c-1.7,0.9-3.3,2-5.3,3.3c0-12.2,0-25.1,0-37.2"/>
		<path id="XMLID_8_" class="st5" d="M136.9,155.2c-0.4-0.1-1,0.1-1.2-0.5c-0.1-0.6,0.3-0.9,0.7-1.1c7.3-4.1,14.7-7.9,22.4-11.2
			c0.2,0.1,48.5,8.2,42.5,8.8c-2.9,2.3-16.5,9.4-19.9,11.4c-1.2,0.7-2.4,1-3.9,0.6"/>
	</g>
</g>
</svg>
