<?xml version="1.0" encoding="utf-8"?>
<!-- Generator: Adobe Illustrator 19.2.1, SVG Export Plug-In . SVG Version: 6.00 Build 0)  -->
<svg version="1.1" id="Layer_1" xmlns="http://www.w3.org/2000/svg" xmlns:xlink="http://www.w3.org/1999/xlink" x="0px" y="0px"
	 viewBox="0 0 300 300" style="enable-background:new 0 0 300 300;" xml:space="preserve">
<style type="text/css">
	.st0{fill:none;}
	.st1{enable-background:new    ;}
	.st2{fill:#9C9C9C;}
	.st3{fill:#F1F2F2;}
	.st4{fill:#A61F30;}
</style>
<g id="BG_x5F_Color">
</g>
<g id="Layer_2">
</g>
<g id="Layer_3">
</g>
<g id="Layer_4">
	<g id="XMLID_13_">
		<rect id="XMLID_22_" y="64.3" class="st0" width="299" height="65.1"/>
		<g class="st1">
			<path class="st2" d="M51.4,82.4c-4.9,0-8.6-1.1-11.1-3.3c-2.4-2.2-3.7-5.1-3.9-8.5h4.5c0.2,2.6,1.3,4.6,3.3,5.8
				c1.9,1.3,4.3,1.9,7,1.9c2.6,0,4.7-0.5,6.3-1.6c1.6-1.1,2.4-2.5,2.4-4.4c0-1.9-0.8-3.3-2.5-4.2c-1.6-0.9-4.5-1.7-8.5-2.6
				c-4-0.9-6.9-2-8.6-3.6c-1.7-1.5-2.6-3.5-2.6-6.1c0-2.8,1.1-5.2,3.4-7c2.3-1.8,5.3-2.7,9.1-2.7c4,0,7.1,0.9,9.6,2.8
				c2.4,1.8,3.7,4.4,3.9,7.8H59c-0.5-4.2-3.4-6.4-8.7-6.4c-2.6,0-4.6,0.5-6,1.5c-1.4,1-2.1,2.3-2.1,3.9c0,1.5,0.6,2.6,1.7,3.3
				c1.1,0.7,3.3,1.4,6.4,2.1c3.1,0.7,5.6,1.4,7.4,2c1.8,0.7,3.4,1.7,4.7,3.1c1.3,1.4,2,3.3,2,5.7c0,3-1.2,5.5-3.6,7.5
				C58.4,81.4,55.2,82.4,51.4,82.4z"/>
			<path class="st2" d="M74.7,51.6h-4.5v-4.9h4.5V51.6z M74.7,81.8h-4.5V56.5h4.5V81.8z"/>
			<path class="st2" d="M85.9,81.8h-4.5V46.8h4.5V81.8z"/>
			<path class="st2" d="M113.1,56.5l-9.6,25.4h-4l-9.6-25.4h4.9l6.7,19.9l6.7-19.9H113.1z"/>
			<path class="st2" d="M127.9,82.4c-3.7,0-6.7-1.2-9-3.5c-2.3-2.3-3.4-5.6-3.4-9.8c0-4.1,1.1-7.4,3.3-9.8c2.2-2.4,5.1-3.5,8.6-3.5
				c3.6,0,6.5,1.2,8.7,3.5c2.2,2.3,3.2,5.6,3.2,9.8v1.1h-19.1c0.2,2.9,1,5.1,2.4,6.5c1.4,1.4,3.2,2.1,5.3,2.1c1.6,0,3-0.4,4.3-1.2
				c1.3-0.8,1.9-2,2-3.4h4.7c-0.4,2.6-1.5,4.6-3.6,6.1S130.8,82.4,127.9,82.4z M134.5,66.7c-0.4-2.4-1.2-4.3-2.5-5.5
				c-1.3-1.2-2.8-1.8-4.7-1.8c-1.8,0-3.3,0.6-4.6,1.8s-2.1,3-2.5,5.5H134.5z"/>
			<path class="st2" d="M157.5,60.6c-0.6-0.2-1.6-0.3-2.8-0.3c-2.3,0-4.3,1.2-5.9,3.6v17.9h-4.5V56.5h4.5V60
				c1.9-2.7,4.1-4.1,6.6-4.1c0.6,0,1.3,0.1,2.1,0.2V60.6z"/>
			<path class="st2" d="M165.2,59.5c2-2.4,4.4-3.6,7.3-3.6c3.3,0,5.9,1.2,7.7,3.5c1.8,2.4,2.7,5.5,2.7,9.5c0,4.2-1,7.5-3.1,9.9
				c-2,2.4-4.6,3.6-7.7,3.6c-2.7,0-5.1-0.9-6.9-2.6v2h-4.5V46.8h4.5V59.5z M165.2,75.8c1.9,2.1,4.1,3.1,6.7,3.1
				c1.9,0,3.5-0.8,4.6-2.5c1.1-1.7,1.7-4.2,1.7-7.5c0-3.1-0.5-5.5-1.6-7.1s-2.6-2.4-4.5-2.4c-2.5,0-4.8,1.5-6.8,4.4V75.8z"/>
			<path class="st2" d="M198.2,55.9c3.6,0,6.5,1.2,8.7,3.5c2.2,2.3,3.2,5.6,3.2,9.8c0,4.2-1.1,7.5-3.2,9.8c-2.2,2.3-5.1,3.5-8.7,3.5
				c-3.6,0-6.5-1.2-8.6-3.5c-2.2-2.3-3.2-5.6-3.2-9.8c0-4.2,1.1-7.5,3.2-9.8C191.7,57,194.6,55.9,198.2,55.9z M198.2,78.9
				c2.2,0,3.9-0.8,5.2-2.5c1.3-1.6,2-4.1,2-7.3c0-3.2-0.7-5.7-2-7.3c-1.3-1.6-3.1-2.5-5.2-2.5c-2.2,0-3.9,0.8-5.2,2.5
				c-1.3,1.6-2,4.1-2,7.3c0,3.2,0.7,5.7,2,7.3C194.3,78.1,196,78.9,198.2,78.9z"/>
			<path class="st2" d="M225.4,55.9c3.6,0,6.5,1.2,8.7,3.5c2.2,2.3,3.2,5.6,3.2,9.8c0,4.2-1.1,7.5-3.2,9.8c-2.2,2.3-5.1,3.5-8.7,3.5
				c-3.6,0-6.5-1.2-8.6-3.5c-2.2-2.3-3.2-5.6-3.2-9.8c0-4.2,1.1-7.5,3.2-9.8C218.9,57,221.8,55.9,225.4,55.9z M225.4,78.9
				c2.2,0,3.9-0.8,5.2-2.5c1.3-1.6,2-4.1,2-7.3c0-3.2-0.7-5.7-2-7.3c-1.3-1.6-3.1-2.5-5.2-2.5c-2.2,0-3.9,0.8-5.2,2.5
				c-1.3,1.6-2,4.1-2,7.3c0,3.2,0.7,5.7,2,7.3C221.5,78.1,223.3,78.9,225.4,78.9z"/>
			<path class="st2" d="M263.4,81.8H258l-8.3-12.9l-2.8,2.8v10.1h-4.5V46.8h4.5v19.9l9.8-10.2h5.7l-9.6,9.5L263.4,81.8z"/>
		</g>
		<g>
			<g id="XMLID_6_">
				<g id="XMLID_11_">
					<polygon class="st3" points="250.4,147.1 250.4,176.9 164.5,227.5 145,224.2 143.5,222.9 92.3,210.8 54.5,204 47.3,200.2 
						44.3,190.8 48.5,176.3 54.7,172.2 100.2,177.8 161.5,192.5 248.5,147.1 					"/>
				</g>
				<g id="XMLID_12_">
				</g>
			</g>
			<g id="XMLID_7_">
				<path id="XMLID_15_" class="st2" d="M117,221.9c-11.9-2.4-32-6.7-43.9-9.2c-5.3-1.1-10.6-2.5-16-3.3c-6.9-1-10.7-5.4-13.5-11.1
					c-1.3-2.7-1.9-5.7-2.9-8.5c0-0.8,0-1.6,0-2.3c0.5-4.2,1.3-8.2,4.2-11.5c2.2-2.6,4.8-4.6,7.8-6c27.4-13.7,54.8-27.6,82.3-41.1
					c2.5-1.2,5-2.7,7.6-3.7c1.7-0.7,3.5-1.1,5.4-1.1c0.9,0.1,1.8-0.2,2.7,0.2c32.3,6,64.6,12,96.9,18c1.5,0.3,3.1,0.5,4.6,0.8
					c0.8,0.2,1.9,0.4,2,1.4c0.1,0.9-0.9,1.2-1.6,1.5c-6.7,3.7-13.4,7.4-20.2,11.2c-21.5,11.9-43,23.8-64.5,35.8
					c-3.7,2.1-7.5,2.3-11.6,1.4c-28.8-6.1-57.6-12.1-86.5-17.7c-3.1-0.6-6.4-1-9.5-1.7c-3.2-0.8-5.8,0.2-8.1,2.2
					c-7,5.8-6.8,18.5,0.3,24.1c2.1,1.7,4.9,1.8,7.4,2.4c16.2,3.6,40.7,8.9,56.9,12.5"/>
				<path id="XMLID_14_" class="st2" d="M133.8,219.8c5.1,1.3,18.9,3.9,24,5.1c3.4,0.8,6.4,0.1,9.5-1.6c28.3-15.8,56.7-31.6,85-47.4
					c2.5-1.4,4.4-1.6,6.1,1c0,0.6,0,1.2,0,1.8c-1,1.2-2.4,1.9-3.7,2.7c-28.3,15.7-56.6,31.4-84.8,47.2c-4.3,2.4-8.7,3.1-13.5,2.1
					c-4.9-1.1-17.6-4.6-22.5-5.6"/>
			</g>
			<path id="XMLID_16_" class="st4" d="M134,204.8c-0.2,11.5-0.2,26.1-0.3,37.6c-0.2,0-7.4-6-9.2-7.7c-0.9-0.8-1.7,0-2.3,0.3
				c-1.7,0.9-3.3,2-5.3,3.3c0-12.2,0-25.1,0-37.2"/>
			<path id="XMLID_8_" class="st4" d="M136.9,155.2c-0.4-0.1-1,0.1-1.2-0.5c-0.1-0.6,0.3-0.9,0.7-1.1c7.3-4.1,14.7-7.9,22.4-11.2
				c0.2,0.1,48.5,8.2,42.5,8.8c-2.9,2.3-16.5,9.4-19.9,11.4c-1.2,0.7-2.4,1-3.9,0.6"/>
		</g>
	</g>
</g>
</svg>
